<svg id="visual" viewBox="0 0 900 600" width="900" height="600" xmlns="http://www.w3.org/2000/svg" xmlns:xlink="http://www.w3.org/1999/xlink" version="1.1"><rect x="0" y="0" width="900" height="600" fill="#ffffff"></rect><defs><linearGradient id="grad1_0" x1="33.3%" y1="0%" x2="100%" y2="100%"><stop offset="20%" stop-color="#ffffff" stop-opacity="1"></stop><stop offset="80%" stop-color="#ffffff" stop-opacity="1"></stop></linearGradient></defs><defs><linearGradient id="grad2_0" x1="0%" y1="0%" x2="66.7%" y2="100%"><stop offset="20%" stop-color="#ffffff" stop-opacity="1"></stop><stop offset="80%" stop-color="#ffffff" stop-opacity="1"></stop></linearGradient></defs><g transform="translate(900, 0)"><path d="M0 189.3C-16.5 178.7 -33 168.1 -53.5 164.5C-73.9 161 -98.4 164.5 -111.3 153.1C-124.1 141.8 -125.4 115.5 -134.3 97.6C-143.2 79.7 -159.8 70.2 -170.2 55.3C-180.7 40.5 -185 20.2 -189.3 0L0 0Z" fill="#001122"></path></g><g transform="translate(0, 600)"><path d="M0 -189.3C18.1 -179.5 36.2 -169.7 52.5 -161.7C68.9 -153.7 83.6 -147.5 102.3 -140.8C121 -134 143.7 -126.6 153.1 -111.3C162.6 -95.9 158.8 -72.7 162.6 -52.8C166.4 -33 177.9 -16.5 189.3 0L0 0Z" fill="#001122"></path></g></svg>